<svg width="30" height="23" viewBox="0 0 30 23" fill="none" xmlns="http://www.w3.org/2000/svg">
<path d="M2.91667 22.6667C2.11458 22.6667 1.42795 22.3892 0.856771 21.8344C0.28559 21.2795 0 20.6125 0 19.8333V2.83333C0 2.05417 0.28559 1.38715 0.856771 0.832292C1.42795 0.277431 2.11458 0 2.91667 0H26.25C27.0521 0 27.7387 0.277431 28.3099 0.832292C28.8811 1.38715 29.1667 2.05417 29.1667 2.83333V19.8333C29.1667 20.6125 28.8811 21.2795 28.3099 21.8344C27.7387 22.3892 27.0521 22.6667 26.25 22.6667H2.91667ZM14.5833 12.75L26.25 5.66667V2.83333L14.5833 9.91667L2.91667 2.83333V5.66667L14.5833 12.75Z" fill="#B8355F"/>
</svg>
