<svg width="25" height="27" viewBox="0 0 25 27" fill="none" xmlns="http://www.w3.org/2000/svg">
<g clip-path="url(#clip0_48_106)">
<path d="M12.5031 0H12.4969C5.6047 0 1.64015e-05 5.97696 1.64015e-05 13.3266C-0.00426344 16.1335 0.829156 18.8691 2.3797 21.1376L0.821891 26.0884L5.62658 24.4509C7.66466 25.8925 10.0573 26.6587 12.5031 26.6531C19.3953 26.6531 25 20.6745 25 13.3266C25 5.97863 19.3953 0 12.5031 0ZM19.7766 18.8188C19.475 19.7266 18.2781 20.4796 17.3235 20.6995C16.6703 20.8477 15.8172 20.966 12.9453 19.6967C9.27189 18.0741 6.90627 14.0945 6.72189 13.8363C6.54533 13.5781 5.23752 11.729 5.23752 9.81668C5.23752 7.90431 6.14845 6.97312 6.51564 6.57332C6.8172 6.24516 7.31564 6.09523 7.79377 6.09523C7.94845 6.09523 8.08752 6.10356 8.21252 6.11023C8.5797 6.12688 8.76408 6.15021 9.00627 6.76823C9.30783 7.54283 10.0422 9.45519 10.1297 9.65176C10.2188 9.84833 10.3078 10.1149 10.1828 10.3731C10.0656 10.6396 9.96252 10.7579 9.77814 10.9844C9.59377 11.211 9.41877 11.3842 9.23439 11.6274C9.06564 11.839 8.87502 12.0655 9.08752 12.457C9.30002 12.8401 10.0344 14.1178 11.1156 15.144C12.511 16.4683 13.6422 16.8914 14.0469 17.0713C14.3485 17.2046 14.7078 17.1729 14.9281 16.9231C15.2078 16.6016 15.5531 16.0685 15.9047 15.5438C16.1547 15.1673 16.4703 15.1206 16.8016 15.2539C17.1391 15.3788 18.925 16.32 19.2922 16.5149C19.6594 16.7115 19.9016 16.8048 19.9906 16.9697C20.0781 17.1346 20.0781 17.9092 19.7766 18.8188Z" fill="#B8225F"/>
</g>
<defs>
<clipPath id="clip0_48_106">
<rect width="25" height="26.6531" fill="white"/>
</clipPath>
</defs>
</svg>
